<svg width="16" height="16" viewBox="0 0 16 16" fill="none" xmlns="http://www.w3.org/2000/svg">
<path d="M1.63315 4.66167C1.71937 4.06099 2.21243 3.61003 2.81772 3.56684C4.10929 3.47467 6.35758 3.33333 8 3.33333C9.6424 3.33333 11.8907 3.47467 13.1823 3.56684C13.7875 3.61003 14.2806 4.06099 14.3669 4.66167C14.4993 5.58479 14.6667 6.95706 14.6667 8.00006C14.6667 9.04313 14.4993 10.4153 14.3669 11.3385C14.2806 11.9391 13.7875 12.3901 13.1822 12.4333C11.8907 12.5254 9.6424 12.6667 8 12.6667C6.3576 12.6667 4.10935 12.5254 2.81777 12.4333C2.21245 12.3901 1.71937 11.9391 1.63315 11.3385C1.50065 10.4153 1.33333 9.04313 1.33333 8.00006C1.33333 6.95706 1.50065 5.58479 1.63315 4.66167Z" stroke="#BFBFBF" stroke-linecap="round" stroke-linejoin="round"/>
<path d="M10.6667 8L6.66667 10.3094V5.6906L10.6667 8Z" stroke="#BFBFBF" stroke-linecap="round" stroke-linejoin="round"/>
<path d="M6.66667 10V5.66667L10.6667 8.00001L6.66667 10Z" stroke="#BFBFBF"/>
</svg>
