<svg width="23" height="23" viewBox="0 0 23 23" fill="none" xmlns="http://www.w3.org/2000/svg">
<path d="M15.8527 11.1996V11.1993C15.8527 10.3091 15.588 9.43903 15.0921 8.69903C14.5963 7.95904 13.8916 7.38242 13.0673 7.04195C12.243 6.70148 11.3361 6.61241 10.4611 6.78597C9.58605 6.95953 8.7822 7.38795 8.15118 8.01718C7.52016 8.64642 7.09033 9.44823 6.91618 10.3213C6.74203 11.1943 6.83142 12.0992 7.173 12.9215C7.51458 13.7438 8.09296 14.4465 8.83488 14.9409C9.57679 15.4352 10.4489 15.699 11.3411 15.699V15.399L11.3414 15.699C12.5372 15.6976 13.6838 15.2234 14.5296 14.38C15.3754 13.5365 15.8513 12.3928 15.8527 11.1996ZM6.19373 0.3H16.4884C18.0221 0.301773 19.4922 0.910082 20.5764 1.99121C21.6606 3.07235 22.2703 4.53802 22.272 6.06661V16.3319C22.2703 17.8605 21.6606 19.3262 20.5764 20.4073C19.4922 21.4885 18.022 22.0968 16.4883 22.0985H6.19389C4.66019 22.0968 3.18998 21.4885 2.10576 20.4073C1.02159 19.3262 0.411885 17.8606 0.410107 16.3321V6.06646C0.411885 4.53792 1.02159 3.07232 2.10576 1.99121C3.18995 0.910082 4.66009 0.301773 6.19373 0.3ZM21.9361 16.3326V16.3323V6.06627V6.06593C21.9345 4.62533 21.3599 3.24436 20.3386 2.22596C19.3173 1.20758 17.9328 0.634899 16.4889 0.633272H16.4886L6.19355 0.633272L6.19321 0.633272C4.7493 0.634899 3.36482 1.20758 2.34357 2.22596C1.32228 3.24436 0.747653 4.62533 0.746021 6.06593V6.06627L0.746021 16.3323L0.746021 16.3326C0.747653 17.7732 1.32228 19.1542 2.34357 20.1726C3.36482 21.191 4.7493 21.7636 6.19321 21.7653H6.19355H16.4886H16.4889C17.9328 21.7636 19.3173 21.191 20.3386 20.1726C21.3599 19.1542 21.9345 17.7732 21.9361 16.3326ZM8.64761 7.18099C9.44471 6.64989 10.3819 6.36634 11.3407 6.36627L11.3411 6.36627C12.6265 6.36781 13.8587 6.87769 14.7674 7.78382C15.6761 8.69 16.1871 9.91844 16.1886 11.1996C16.1885 12.1552 15.9043 13.0893 15.3719 13.884C14.8393 14.6788 14.0823 15.2984 13.1964 15.6643C12.3105 16.0302 11.3357 16.1259 10.3952 15.9394C9.45472 15.7528 8.59094 15.2924 7.91305 14.6164C7.23518 13.9405 6.77364 13.0793 6.58666 12.142C6.39968 11.2046 6.49564 10.233 6.86243 9.35004C7.22922 8.46702 7.85042 7.71215 8.64761 7.18099Z" stroke="#1E1E1E" stroke-width="0.6"/>
</svg>
