<svg width="16" height="22" viewBox="0 0 16 22" fill="none" xmlns="http://www.w3.org/2000/svg">
<path d="M11.5176 20.8928C11.109 20.7906 10.5982 20.8928 10.2918 20.6885C8.96377 19.7691 7.84008 19.9734 6.51208 20.7906C5.59269 21.3014 4.36685 21.0971 3.65177 20.0756C2.63023 18.6454 1.50654 17.2152 0.689307 15.5808C-0.434386 13.0269 -0.127924 10.6774 1.20008 8.32786C2.52808 6.08048 4.77546 5.36541 7.02285 6.4891C8.55515 7.30633 9.781 6.69339 11.109 6.08046C12.7435 5.26323 14.4801 5.67187 15.5016 6.99987C15.8081 7.51064 16.0124 7.81707 15.3995 8.42999C13.0499 10.4731 12.9478 12.6183 14.9908 14.8657C16.3188 16.398 16.3188 16.398 15.093 18.0325C14.1736 19.3605 13.5607 21.0971 11.5176 20.8928Z" fill="black"/>
<path d="M12.3348 0.972907C12.1305 3.11814 11.2111 4.65045 9.27021 5.56983C8.14652 6.0806 7.5336 5.56982 7.7379 4.34397C7.94221 3.22028 8.55513 2.40305 9.37236 1.79013C10.3939 0.972894 10.5982 0.870753 12.3348 0.972907Z" fill="black"/>
</svg>
