<svg width="16" height="16" viewBox="0 0 16 16" fill="none" xmlns="http://www.w3.org/2000/svg">
<path d="M13.4762 2.43967C13.0247 2.9785 12.5732 3.30177 12.2346 3.73283C11.6702 4.48718 11.2187 4.59496 10.3157 4.05614C8.17115 2.87073 6.36517 3.40953 4.5592 5.34929C3.20473 6.75023 3.09186 8.90555 4.10772 10.6298C5.57507 13.0006 10.5415 13.1083 12.1217 10.8453C12.5732 10.1987 12.3475 9.6599 11.4445 9.55213C10.8801 9.44437 10.2029 9.6599 9.52562 9.55213C8.39689 9.44437 7.94541 8.90554 8.05828 7.82789C8.05828 6.75025 8.84839 6.64248 9.75138 6.64248C11.3316 6.64248 12.7989 6.64249 14.3792 6.75025C16.0723 6.85802 16.1851 7.07353 15.8465 8.69C15.8465 8.90553 15.6208 9.22883 15.6208 9.44436C15.0564 12.2462 14.0406 14.6171 10.8801 15.4792C7.49391 16.3413 4.44633 15.5869 1.96312 13.3239C-0.74584 10.8453 -0.63297 5.3493 2.18886 2.76295C5.57506 -0.577744 10.2029 -0.685496 13.4762 2.43967Z" fill="black"/>
</svg>
