<svg width="16" height="16" viewBox="0 0 16 16" fill="none" xmlns="http://www.w3.org/2000/svg">
<g clip-path="url(#clip0_694_440)">
<path d="M1.33334 4.00004C1.33334 2.52728 2.52725 1.33337 4.00001 1.33337H12C13.4727 1.33337 14.6667 2.52728 14.6667 4.00004V12C14.6667 13.4728 13.4727 14.6667 12 14.6667H4.00001C2.52725 14.6667 1.33334 13.4728 1.33334 12V4.00004Z" stroke="black" stroke-linecap="round" stroke-linejoin="round"/>
<path d="M8.00001 10.963C9.63641 10.963 10.963 9.63647 10.963 8.00007C10.963 6.36367 9.63641 5.03711 8.00001 5.03711C6.36361 5.03711 5.03705 6.36367 5.03705 8.00007C5.03705 9.63647 6.36361 10.963 8.00001 10.963Z" stroke="black" stroke-linecap="round" stroke-linejoin="round"/>
<path d="M12 4.01447V4" stroke="black" stroke-linecap="round" stroke-linejoin="round"/>
</g>
<defs>
<clipPath id="clip0_694_440">
<rect width="16" height="16" fill="white"/>
</clipPath>
</defs>
</svg>
