<svg width="16" height="16" viewBox="0 0 16 16" fill="none" xmlns="http://www.w3.org/2000/svg">
<g clip-path="url(#clip0_782_564)">
<path d="M5.99999 7.99998L7.33331 9.33331L9.99998 6.66665M5.29755 2.83313L4.16795 2.82467C3.42378 2.8191 2.8191 3.42378 2.82467 4.16795L2.83313 5.29755C2.83583 5.65809 2.6924 6.00435 2.43555 6.25737L1.63083 7.05018C1.10068 7.57245 1.10068 8.42758 1.63083 8.94985L2.43555 9.74258C2.6924 9.99565 2.83583 10.3419 2.83313 10.7024L2.82467 11.832C2.8191 12.5762 3.42378 13.1808 4.16795 13.1753L5.29755 13.1668C5.65809 13.1642 6.00435 13.3076 6.25737 13.5644L7.05018 14.3692C7.57245 14.8993 8.42758 14.8993 8.94985 14.3692L9.74258 13.5644C9.99565 13.3076 10.3419 13.1642 10.7024 13.1668L11.832 13.1753C12.5762 13.1808 13.1808 12.5762 13.1753 11.832L13.1668 10.7024C13.1642 10.3419 13.3076 9.99565 13.5644 9.74258L14.3692 8.94985C14.8993 8.42758 14.8993 7.57245 14.3692 7.05018L13.5644 6.25737C13.3076 6.00435 13.1642 5.65809 13.1668 5.29755L13.1753 4.16795C13.1808 3.42378 12.5762 2.8191 11.832 2.82467L10.7024 2.83313C10.3419 2.83583 9.99565 2.6924 9.74258 2.43555L8.94985 1.63083C8.42758 1.10068 7.57238 1.10068 7.05018 1.63083L6.25737 2.43555C6.00435 2.6924 5.65809 2.83583 5.29755 2.83313Z" stroke="#86BD6C" stroke-linecap="round" stroke-linejoin="round"/>
</g>
<defs>
<clipPath id="clip0_782_564">
<rect width="16" height="16" fill="white"/>
</clipPath>
</defs>
</svg>
