<svg width="24" height="18" viewBox="0 0 24 18" fill="none" xmlns="http://www.w3.org/2000/svg">
<path d="M5.15898 1.63182L5.15899 1.6318C4.37933 1.05332 3.21562 0.674464 2.21619 0.825551C1.70713 0.902509 1.22514 1.12028 0.872329 1.5366L0.872328 1.5366C0.541802 1.92663 0.476134 2.47375 0.476029 3.27877L0.626922 14.8535L0.626973 14.8574C0.626948 15.9733 0.906069 16.5472 1.44764 16.9349C1.96102 17.3024 2.70947 17.3488 3.1721 17.3138L3.18341 17.3129H3.19475H4.69221C4.70795 17.3129 4.72267 17.3129 4.73647 17.313C4.78555 17.313 4.82315 17.3131 4.85476 17.3121C4.855 17.3037 4.85514 17.2944 4.85514 17.2841C4.85514 17.1069 4.71093 16.9619 4.53119 16.9619H2.88075L5.15898 1.63182ZM5.15898 1.63182L5.16128 1.63349M5.15898 1.63182L5.16128 1.63349M5.16128 1.63349L11.6867 6.37993L11.8643 6.50909M5.16128 1.63349L11.8643 6.50909M11.8643 6.50909L12.0411 6.37887M11.8643 6.50909L12.0411 6.37887M12.0411 6.37887L18.7073 1.46896L18.7074 1.46908M12.0411 6.37887L18.7074 1.46908M18.7074 1.46908L18.715 1.4631M18.7074 1.46908L18.715 1.4631M18.715 1.4631C19.6473 0.728903 20.829 0.610173 21.786 1.09028L21.898 0.867012M18.715 1.4631L21.898 0.867012M21.898 0.867012L21.786 1.09028C22.753 1.57542 23.4349 2.64112 23.4349 4.15946V14.506C23.4349 15.0762 23.361 15.8462 22.9591 16.4813C22.5401 17.1431 21.7988 17.6063 20.5894 17.6063H17.9809C17.936 17.6063 17.91 17.5974 17.8952 17.5899C17.8808 17.5826 17.8669 17.5713 17.8531 17.5517C17.8222 17.5076 17.7926 17.4206 17.7926 17.2841V9.84814V9.24062L17.3102 9.60994L12.0575 13.6316C11.9429 13.7156 11.7864 13.7153 11.672 13.6306C11.6717 13.6304 11.6714 13.6302 11.6712 13.63L6.37099 9.60913L5.88967 9.244V9.84814V14.4523C5.88967 14.5009 5.88079 14.5274 5.87447 14.5405C5.86868 14.5524 5.86074 14.5623 5.84644 14.5724C5.81169 14.5969 5.7336 14.6251 5.59069 14.6251C5.52248 14.6251 5.48651 14.6187 5.46973 14.6141C5.46891 14.6112 5.46801 14.6078 5.46709 14.6038C5.46037 14.5746 5.45514 14.5275 5.45514 14.4523V8.83671C5.45514 8.72134 5.51708 8.61505 5.61707 8.55773C5.62955 8.56068 5.65697 8.56962 5.70489 8.59678C5.77804 8.63826 5.84551 8.69027 5.92091 8.74839C5.94839 8.76958 5.97693 8.79157 6.00717 8.81416M21.898 0.867012L6.00717 8.81416M6.00717 8.81416L11.718 13.308L11.9036 13.4541L12.0892 13.3079L17.791 8.81422C17.8277 8.7868 17.8688 8.7538 17.9054 8.72429C17.9203 8.71236 17.9344 8.701 17.9472 8.69082C17.9988 8.64991 18.0432 8.6167 18.0838 8.59175C18.114 8.57318 18.1339 8.56415 18.1455 8.55986C18.1695 8.57596 18.1851 8.59663 18.1979 8.62691C18.2169 8.67192 18.2294 8.73985 18.2294 8.83671V17.0102V17.3102H18.5294H20.5894C21.654 17.3102 22.3584 16.6137 22.6157 16.2073L22.6158 16.2072C22.7744 15.9566 22.8582 15.6561 22.9042 15.3664C22.9507 15.0742 22.9618 14.7722 22.9618 14.506V4.15946C22.9618 2.8286 22.1787 1.78862 21.4767 1.43645C20.7574 1.07556 19.8439 1.15164 19.0972 1.74107L12.0582 6.92546L12.0582 6.92548C11.9841 6.98005 11.9402 6.98768 11.9166 6.98764C11.8925 6.9876 11.8475 6.97946 11.7718 6.92442L11.7718 6.92441L4.86987 1.90407C4.50364 1.63235 4.03965 1.49842 3.5939 1.44256C3.14431 1.38622 2.68762 1.40605 2.31355 1.46259L2.31354 1.4626C1.92352 1.52156 1.59788 1.68026 1.36772 1.95186L1.36772 1.95186C1.13738 2.22368 0.972991 2.64361 0.972991 3.28072V9.2508V14.988C0.972991 15.8959 1.30548 16.383 1.67517 16.6476L6.00717 8.81416ZM1.6752 16.6476C2.06257 16.925 2.53763 16.991 2.85159 16.9631L1.6752 16.6476ZM5.45725 14.6096C5.45728 14.6096 5.45775 14.6098 5.45855 14.6103L5.45725 14.6096ZM5.47397 14.6261C5.47409 14.6263 5.47415 14.6264 5.47415 14.6264L5.47397 14.6261ZM19.0927 1.74471L19.0929 1.74455L19.2792 1.97956L19.0925 1.74489L19.0927 1.74471ZM19.4363 1.72859C19.4281 1.7232 19.4198 1.71811 19.4119 1.71344C19.4151 1.71478 19.4182 1.71611 19.4211 1.71744C19.4258 1.72056 19.4309 1.72431 19.4363 1.72859ZM19.0362 2.14867C19.0379 2.15072 19.0396 2.15278 19.0413 2.15483L19.0402 2.1556C19.0389 2.15337 19.0376 2.15105 19.0362 2.14867ZM18.1589 8.55621C18.1589 8.55631 18.1579 8.55653 18.1561 8.5566L18.1589 8.55621Z" stroke="#1E1E1E" stroke-width="0.6"/>
</svg>
