<svg width="16" height="16" viewBox="0 0 16 16" fill="none" xmlns="http://www.w3.org/2000/svg">
<g clip-path="url(#clip0_708_423)">
<path d="M1.33333 3.99999C1.33333 2.52723 2.52724 1.33333 4 1.33333H12C13.4727 1.33333 14.6667 2.52723 14.6667 3.99999V12C14.6667 13.4727 13.4727 14.6667 12 14.6667H4C2.52724 14.6667 1.33333 13.4727 1.33333 12V3.99999Z" stroke="#BFBFBF" stroke-linecap="round" stroke-linejoin="round"/>
<path d="M8 10.963C9.6364 10.963 10.963 9.63647 10.963 8.00007C10.963 6.36367 9.6364 5.03711 8 5.03711C6.3636 5.03711 5.03704 6.36367 5.03704 8.00007C5.03704 9.63647 6.3636 10.963 8 10.963Z" stroke="#BFBFBF" stroke-linecap="round" stroke-linejoin="round"/>
<path d="M12 4.01447V4" stroke="#BFBFBF" stroke-linecap="round" stroke-linejoin="round"/>
</g>
<defs>
<clipPath id="clip0_708_423">
<rect width="16" height="16" fill="white"/>
</clipPath>
</defs>
</svg>
